<svg width="1357" height="422" viewBox="0 0 1357 422" fill="none" xmlns="http://www.w3.org/2000/svg">
<rect width="1315" height="422" rx="25" fill="#1E2022"/>
<path d="M225 97V202.488L310 252" stroke="#F5F3EE" stroke-width="25" stroke-linecap="round"/>
<path d="M89 252C122.195 232.726 140.805 221.92 174 202.645V97" stroke="#F5F3EE" stroke-width="25" stroke-linecap="round"/>
<path d="M283 291C250.196 272.255 231.804 261.745 199 243L115 291" stroke="#FF4D00" stroke-width="25" stroke-linecap="round"/>
<path d="M193.381 34.7705C197.181 32.637 201.819 32.637 205.619 34.7705L353.392 117.735C357.332 119.948 359.772 124.115 359.772 128.635V293.365C359.772 297.885 357.332 302.052 353.392 304.265L205.619 387.229C201.819 389.363 197.181 389.363 193.381 387.229L45.6084 304.265C41.6676 302.052 39.2276 297.885 39.2275 293.365V128.635C39.2275 124.115 41.6676 119.948 45.6084 117.735L193.381 34.7705Z" stroke="#F5F3EE" stroke-width="25"/>
<path d="M469 291V129H504.8V266.8H542V291H469ZM610.956 293.4C598.556 293.4 588.823 291.4 581.756 287.4C574.823 283.267 569.956 277.333 567.156 269.6C564.356 261.733 562.956 252.133 562.956 240.8V129H598.356V246.2C598.356 249.533 598.623 252.867 599.156 256.2C599.69 259.533 600.823 262.267 602.556 264.4C604.423 266.533 607.223 267.6 610.956 267.6C614.823 267.6 617.623 266.533 619.356 264.4C621.09 262.267 622.156 259.533 622.556 256.2C623.09 252.867 623.356 249.533 623.356 246.2V129H658.956V240.8C658.956 252.133 657.49 261.733 654.556 269.6C651.756 277.333 646.89 283.267 639.956 287.4C633.023 291.4 623.356 293.4 610.956 293.4ZM691.134 291L693.934 129H732.334L750.134 223.2L769.334 129H806.334L809.134 291H783.734L780.734 183.2L761.934 291H739.334L719.334 182.4L716.934 291H691.134ZM834.755 291L865.355 129H906.155L936.355 291H903.355L897.955 256.8H874.155L868.555 291H834.755ZM877.355 235.4H894.555L885.955 172.2L877.355 235.4Z" fill="#F5F3EE"/>
<path d="M973.883 291V129H1009.68V266.8H1046.88V291H973.883ZM1064.75 291L1095.35 129H1136.15L1166.35 291H1133.35L1127.95 256.8H1104.15L1098.55 291H1064.75ZM1107.35 235.4H1124.55L1115.95 172.2L1107.35 235.4ZM1192.71 291V129H1234.91C1241.84 129 1248.38 129.533 1254.51 130.6C1260.78 131.667 1266.31 133.733 1271.11 136.8C1275.91 139.733 1279.64 144 1282.31 149.6C1285.11 155.067 1286.51 162.333 1286.51 171.4C1286.51 177.933 1285.51 183.467 1283.51 188C1281.64 192.4 1278.91 195.933 1275.31 198.6C1271.84 201.267 1267.64 203.067 1262.71 204C1268.98 204.8 1274.24 206.867 1278.51 210.2C1282.78 213.4 1285.98 217.733 1288.11 223.2C1290.38 228.667 1291.51 235.267 1291.51 243C1291.51 251.4 1290.38 258.667 1288.11 264.8C1285.98 270.8 1282.84 275.733 1278.71 279.6C1274.58 283.467 1269.44 286.333 1263.31 288.2C1257.31 290.067 1250.38 291 1242.51 291H1192.71ZM1228.51 266H1236.11C1243.98 266 1249.38 264 1252.31 260C1255.38 256 1256.91 250.133 1256.91 242.4C1256.91 236.267 1256.24 231.4 1254.91 227.8C1253.58 224.2 1251.38 221.6 1248.31 220C1245.24 218.267 1241.11 217.4 1235.91 217.4H1228.51V266ZM1228.51 193.8H1235.51C1240.98 193.8 1245.11 193 1247.91 191.4C1250.71 189.667 1252.58 187.2 1253.51 184C1254.58 180.8 1255.11 176.933 1255.11 172.4C1255.11 168.133 1254.31 164.6 1252.71 161.8C1251.24 158.867 1248.98 156.667 1245.91 155.2C1242.98 153.733 1239.24 153 1234.71 153H1228.51V193.8Z" fill="#FF4D00"/>
</svg>
